<svg xmlns="http://www.w3.org/2000/svg" viewBox="0 0 64 64" role="img" aria-label="Sarthi">
  <rect x="4" y="4" width="56" height="56" rx="16" fill="#20232d"/>
  <path d="M14.5 38.5c4.6-1.2 8.5-.1 11.6 3.2l3.4 3.6c1.4 1.5 3.8 1.5 5.2 0l3.3-3.5c3.1-3.3 7-4.4 11.5-3.3" fill="none" stroke="#ffffff" stroke-width="4.2" stroke-linecap="round" stroke-linejoin="round"/>
  <path d="M17 44.5c3.5 3.8 8.3 6 15 6s11.5-2.2 15-6" fill="none" stroke="#9f2089" stroke-width="4" stroke-linecap="round" stroke-linejoin="round"/>
  <path d="M32 14.5 43 19v9.6c0 7.2-4.5 12.3-11 14.7-6.5-2.4-11-7.5-11-14.7V19l11-4.5Z" fill="#ffffff" fill-opacity="0.16" stroke="#ffffff" stroke-width="2.6" stroke-linejoin="round"/>
  <path d="M27 29.6 30.5 33l7-8.4" fill="none" stroke="#12805c" stroke-width="4.2" stroke-linecap="round" stroke-linejoin="round"/>
  <circle cx="22.6" cy="36.8" r="2.6" fill="#fff" stroke="#9f2089" stroke-width="2.2"/>
  <circle cx="41.4" cy="36.8" r="2.6" fill="#fff" stroke="#9f2089" stroke-width="2.2"/>
</svg>
