<svg xmlns="http://www.w3.org/2000/svg" viewBox="0 0 720 900" role="img" aria-label="Blue floral kurti product visual">
  <defs>
    <linearGradient id="bg" x1="0" y1="0" x2="1" y2="1">
      <stop offset="0" stop-color="#fbf7f2"/>
      <stop offset="1" stop-color="#ece6f4"/>
    </linearGradient>
    <linearGradient id="cloth" x1="0" y1="0" x2="1" y2="1">
      <stop offset="0" stop-color="#153b68"/>
      <stop offset="1" stop-color="#28769a"/>
    </linearGradient>
    <pattern id="floral" width="68" height="68" patternUnits="userSpaceOnUse">
      <path d="M30 30c11-19 27-19 32 0-10 15-22 15-32 0Z" fill="#b7e3dc" opacity=".72"/>
      <path d="M24 43c-15-9-15-21 0-27 12 8 12 19 0 27Z" fill="#f8d56b" opacity=".55"/>
      <circle cx="34" cy="34" r="4" fill="#fff7d6"/>
    </pattern>
  </defs>
  <rect width="720" height="900" rx="38" fill="url(#bg)"/>
  <path d="M156 148h408l54 112-70 54-38-58v472c0 46-31 75-80 75H290c-49 0-80-29-80-75V256l-38 58-70-54 54-112Z" fill="url(#cloth)"/>
  <path d="M156 148h408l54 112-70 54-38-58v472c0 46-31 75-80 75H290c-49 0-80-29-80-75V256l-38 58-70-54 54-112Z" fill="url(#floral)" opacity=".95"/>
  <path d="M286 148c13 43 34 65 74 65s61-22 74-65" fill="none" stroke="#fff6c9" stroke-width="18" stroke-linecap="round"/>
  <path d="M226 280h268M226 702h268" stroke="#fff6c9" stroke-width="10" stroke-linecap="round" opacity=".7"/>
</svg>
