<svg xmlns="http://www.w3.org/2000/svg" viewBox="0 0 720 900" role="img" aria-label="Pink printed kurti product visual">
  <defs>
    <linearGradient id="bg" x1="0" y1="0" x2="1" y2="1">
      <stop offset="0" stop-color="#fff8f8"/>
      <stop offset="1" stop-color="#f3e8ef"/>
    </linearGradient>
    <linearGradient id="cloth" x1="0" y1="0" x2="1" y2="1">
      <stop offset="0" stop-color="#d94a85"/>
      <stop offset="1" stop-color="#8d2b70"/>
    </linearGradient>
    <pattern id="print" width="54" height="54" patternUnits="userSpaceOnUse">
      <path d="M12 30c20-20 29-20 49 0-20 18-29 18-49 0Z" fill="#ffe7a2" opacity=".56"/>
      <circle cx="17" cy="15" r="4" fill="#fff4f8"/>
      <circle cx="39" cy="42" r="3" fill="#fff4f8"/>
    </pattern>
  </defs>
  <rect width="720" height="900" rx="38" fill="url(#bg)"/>
  <path d="M178 132h364l70 134-92 44-36-66v490c0 48-32 76-83 76H319c-51 0-83-28-83-76V244l-36 66-92-44 70-134Z" fill="url(#cloth)"/>
  <path d="M178 132h364l70 134-92 44-36-66v490c0 48-32 76-83 76H319c-51 0-83-28-83-76V244l-36 66-92-44 70-134Z" fill="url(#print)" opacity=".9"/>
  <path d="M292 132c10 49 34 76 68 76s58-27 68-76" fill="none" stroke="#fff1c5" stroke-width="16" stroke-linecap="round"/>
  <path d="M238 290h244M238 724h244" stroke="#fff1c5" stroke-width="9" stroke-linecap="round" opacity=".74"/>
</svg>
